grf
version=1
nRows=56
nColumns=19
inDegrees=yes
endheader
time	ground_force_1_vx	ground_force_1_vy	ground_force_1_vz	ground_force_1_px	ground_force_1_py	ground_force_1_pz	ground_moment_1_mx	ground_moment_1_my	ground_moment_1_mz	ground_force_2_vx	ground_force_2_vy	ground_force_2_vz	ground_force_2_px	ground_force_2_py	ground_force_2_pz	ground_moment_2_mx	ground_moment_2_my	ground_moment_2_mz
0.395000	-18.221203	559.986206	6.032341	0.862139	0.000000	0.167463	0.000000	-0.299508	-0.000000	0.000000	0.000000	0.000000	0.000000	0.000000	0.000000	0.000000	0.000000	0.000000
0.396000	-17.519419	558.244629	7.216905	0.862229	0.000000	0.168406	0.000000	-0.175971	-0.000000	0.000000	0.000000	0.000000	0.000000	0.000000	0.000000	0.000000	0.000000	0.000000
0.397000	-19.023241	567.449707	7.056287	0.863155	0.000000	0.169834	0.000000	-0.235854	-0.000000	0.000000	0.000000	0.000000	0.000000	0.000000	0.000000	0.000000	0.000000	0.000000
0.398000	-19.023241	571.181519	7.377524	0.863135	0.000000	0.169378	0.000000	-0.224392	-0.000000	0.000000	0.000000	0.000000	0.000000	0.000000	0.000000	0.000000	0.000000	0.000000
0.399000	-19.324007	566.371643	7.678684	0.862094	0.000000	0.168757	0.000000	-0.200477	-0.000000	0.000000	0.000000	0.000000	0.000000	0.000000	0.000000	0.000000	0.000000	0.000000
0.400000	-19.404209	568.278992	6.915745	0.860668	0.000000	0.168151	0.000000	-0.235843	-0.000000	0.000000	0.000000	0.000000	0.000000	0.000000	0.000000	0.000000	0.000000	0.000000
0.401000	-19.063343	570.186340	7.257060	0.861380	0.000000	0.168792	0.000000	-0.208167	-0.000000	0.000000	0.000000	0.000000	0.000000	0.000000	0.000000	0.000000	0.000000	0.000000
0.402000	-20.105993	571.761963	8.301083	0.861082	0.000000	0.168667	0.000000	-0.300466	-0.000000	0.000000	0.000000	0.000000	0.000000	0.000000	0.000000	0.000000	0.000000	0.000000
0.403000	-20.366657	577.567017	8.140464	0.860648	0.000000	0.169038	0.000000	-0.340894	-0.000000	0.000000	0.000000	0.000000	0.000000	0.000000	0.000000	0.000000	0.000000	0.000000
0.404000	-21.690022	577.152344	10.810751	0.860828	0.000000	0.168492	0.000000	-0.616550	-0.000000	0.000000	0.000000	0.000000	0.000000	0.000000	0.000000	0.000000	0.000000	0.000000
0.405000	-21.268951	577.732788	10.188354	0.858920	0.000000	0.168938	0.000000	-0.407369	-0.000000	0.000000	0.000000	0.000000	0.000000	0.000000	0.000000	0.000000	0.000000	0.000000
0.406000	-21.268950	581.049927	10.609978	0.860810	0.000000	0.168910	0.000000	-0.507186	-0.000000	0.000000	0.000000	0.000000	0.000000	0.000000	0.000000	0.000000	0.000000	0.000000
0.407000	-21.890532	581.962158	10.248585	0.859197	0.000000	0.168331	0.000000	-0.619395	-0.000000	0.000000	0.000000	0.000000	0.000000	0.000000	0.000000	0.000000	0.000000	0.000000
0.408000	-21.810328	588.181763	10.509591	0.860058	0.000000	0.169177	0.000000	-0.483613	-0.000000	0.000000	0.000000	0.000000	0.000000	0.000000	0.000000	0.000000	0.000000	0.000000
0.409000	-22.772772	589.923279	10.529669	0.859678	0.000000	0.169017	0.000000	-0.509694	-0.000000	0.000000	0.000000	0.000000	0.000000	0.000000	0.000000	0.000000	0.000000	0.000000
0.410000	-22.652466	592.908691	11.011524	0.858995	0.000000	0.169211	0.000000	-0.520482	-0.000000	0.000000	0.000000	0.000000	0.000000	0.000000	0.000000	0.000000	0.000000	0.000000
0.411000	-22.091042	590.006165	10.569823	0.858023	0.000000	0.169007	0.000000	-0.416328	-0.000000	0.000000	0.000000	0.000000	0.000000	0.000000	0.000000	0.000000	0.000000	0.000000
0.412000	-22.752722	595.811218	10.389127	0.857322	0.000000	0.168828	0.000000	-0.522546	-0.000000	0.000000	0.000000	0.000000	0.000000	0.000000	0.000000	0.000000	0.000000	0.000000
0.413000	-23.634966	601.533203	11.111912	0.858293	0.000000	0.169362	0.000000	-0.536522	-0.000000	0.000000	0.000000	0.000000	0.000000	0.000000	0.000000	0.000000	0.000000	0.000000
0.414000	-22.532162	598.216064	10.830829	0.858592	0.000000	0.168705	0.000000	-0.394287	-0.000000	0.000000	0.000000	0.000000	0.000000	0.000000	0.000000	0.000000	0.000000	0.000000
0.415000	-23.354252	602.860046	10.971371	0.857966	0.000000	0.169584	0.000000	-0.540577	-0.000000	0.000000	0.000000	0.000000	0.000000	0.000000	0.000000	0.000000	0.000000	0.000000
0.416000	-23.213896	601.781982	10.409204	0.856386	0.000000	0.168973	0.000000	-0.494345	-0.000000	0.000000	0.000000	0.000000	0.000000	0.000000	0.000000	0.000000	0.000000	0.000000
0.417000	-23.755272	603.938171	11.192222	0.856555	0.000000	0.169112	0.000000	-0.490347	-0.000000	0.000000	0.000000	0.000000	0.000000	0.000000	0.000000	0.000000	0.000000	0.000000
0.418000	-24.817972	612.728516	11.272532	0.857421	0.000000	0.169853	0.000000	-0.585919	-0.000000	0.000000	0.000000	0.000000	0.000000	0.000000	0.000000	0.000000	0.000000	0.000000
0.419000	-24.737770	611.401672	10.750520	0.856955	0.000000	0.169618	0.000000	-0.525557	-0.000000	0.000000	0.000000	0.000000	0.000000	0.000000	0.000000	0.000000	0.000000	0.000000
0.420000	-24.737770	610.987000	11.212298	0.856682	0.000000	0.169714	0.000000	-0.519666	-0.000000	0.000000	0.000000	0.000000	0.000000	0.000000	0.000000	0.000000	0.000000	0.000000
0.421000	-25.640064	612.645630	11.131989	0.855755	0.000000	0.169822	0.000000	-0.532488	-0.000000	0.000000	0.000000	0.000000	0.000000	0.000000	0.000000	0.000000	0.000000	0.000000
0.422000	-26.722816	618.367676	11.915007	0.855680	0.000000	0.169405	0.000000	-0.567725	-0.000000	0.000000	0.000000	0.000000	0.000000	0.000000	0.000000	0.000000	0.000000	0.000000
0.423000	-27.023581	620.026245	11.774465	0.855615	0.000000	0.169508	0.000000	-0.531717	-0.000000	0.000000	0.000000	0.000000	0.000000	0.000000	0.000000	0.000000	0.000000	0.000000
0.424000	-27.384499	620.026184	12.035470	0.855320	0.000000	0.169624	0.000000	-0.529819	-0.000000	0.000000	0.000000	0.000000	0.000000	0.000000	0.000000	0.000000	0.000000	0.000000
0.425000	-27.244141	619.362793	11.814619	0.854533	0.000000	0.169543	0.000000	-0.540032	-0.000000	0.000000	0.000000	0.000000	0.000000	0.000000	0.000000	0.000000	0.000000	0.000000
0.426000	-27.825621	634.455688	11.874851	0.855572	0.000000	0.170930	0.000000	-0.456487	-0.000000	0.000000	0.000000	0.000000	0.000000	0.000000	0.000000	0.000000	0.000000	0.000000
0.427000	-28.587555	625.333618	10.991447	0.853275	0.000000	0.169230	0.000000	-0.651253	-0.000000	0.000000	0.000000	0.000000	0.000000	0.000000	0.000000	0.000000	0.000000	0.000000
0.428000	-28.306843	629.314148	11.252453	0.854909	0.000000	0.169476	0.000000	-0.798976	-0.000000	0.000000	0.000000	0.000000	0.000000	0.000000	0.000000	0.000000	0.000000	0.000000
0.429000	-30.231735	635.699646	13.019260	0.853263	0.000000	0.170023	0.000000	-0.751148	-0.000000	0.000000	0.000000	0.000000	0.000000	0.000000	0.000000	0.000000	0.000000	0.000000
0.430000	-30.291889	628.070251	10.931216	0.852480	0.000000	0.169915	0.000000	-0.679117	-0.000000	0.000000	0.000000	0.000000	0.000000	0.000000	0.000000	0.000000	0.000000	0.000000
0.431000	-31.976170	634.124023	12.055547	0.852678	0.000000	0.168951	0.000000	-0.739451	-0.000000	0.000000	0.000000	0.000000	0.000000	0.000000	0.000000	0.000000	0.000000	0.000000
0.432000	-32.758156	634.538635	12.035470	0.852102	0.000000	0.169989	0.000000	-0.514166	-0.000000	0.000000	0.000000	0.000000	0.000000	0.000000	0.000000	0.000000	0.000000	0.000000
0.433000	-31.895967	630.723938	12.155934	0.852455	0.000000	0.169533	0.000000	-0.595046	-0.000000	0.000000	0.000000	0.000000	0.000000	0.000000	0.000000	0.000000	0.000000	0.000000
0.434000	-32.778210	633.709351	12.396862	0.851410	0.000000	0.169600	0.000000	-0.695478	-0.000000	0.000000	0.000000	0.000000	0.000000	0.000000	0.000000	0.000000	0.000000	0.000000
0.435000	-33.159176	637.192383	12.557481	0.851179	0.000000	0.170278	0.000000	-0.543483	-0.000000	0.000000	0.000000	0.000000	0.000000	0.000000	0.000000	0.000000	0.000000	0.000000
0.436000	-34.302082	640.094788	12.376785	0.850824	0.000000	0.170042	0.000000	-0.749755	-0.000000	0.000000	0.000000	0.000000	0.000000	0.000000	0.000000	0.000000	0.000000	0.000000
0.437000	-35.485092	641.089966	12.316553	0.850244	0.000000	0.170239	0.000000	-0.698826	-0.000000	0.000000	0.000000	0.000000	0.000000	0.000000	0.000000	0.000000	0.000000	0.000000
0.438000	-36.347282	648.470581	13.561349	0.851336	0.000000	0.170806	0.000000	-0.689223	-0.000000	0.000000	0.000000	0.000000	0.000000	0.000000	0.000000	0.000000	0.000000	0.000000
0.439000	-36.908710	649.880371	13.501117	0.850661	0.000000	0.170880	0.000000	-0.717851	-0.000000	0.000000	0.000000	0.000000	0.000000	0.000000	0.000000	0.000000	0.000000	0.000000
0.440000	-37.670647	649.797424	13.481040	0.850932	0.000000	0.170646	0.000000	-0.714486	-0.000000	0.000000	0.000000	0.000000	0.000000	0.000000	0.000000	0.000000	0.000000	0.000000
0.441000	-38.873703	653.529175	13.621581	0.850491	0.000000	0.170564	0.000000	-0.773089	-0.000000	0.000000	0.000000	0.000000	0.000000	0.000000	0.000000	0.000000	0.000000	0.000000
0.442000	-38.853653	651.621826	12.999184	0.849609	0.000000	0.171090	0.000000	-0.607493	-0.000000	0.000000	0.000000	0.000000	0.000000	0.000000	0.000000	0.000000	0.000000	0.000000
0.443000	-39.214569	653.197510	13.079493	0.849527	0.000000	0.170846	0.000000	-0.692005	-0.000000	0.000000	0.000000	0.000000	0.000000	0.000000	0.000000	0.000000	0.000000	0.000000
0.444000	-40.257221	655.685364	12.999183	0.848784	0.000000	0.170799	0.000000	-0.670465	-0.000000	0.000000	0.000000	0.000000	0.000000	0.000000	0.000000	0.000000	0.000000	0.000000
0.445000	-40.457729	655.270691	13.661736	0.848458	0.000000	0.170661	0.000000	-0.775700	-0.000000	0.000000	0.000000	0.000000	0.000000	0.000000	0.000000	0.000000	0.000000	0.000000
0.446000	-41.600636	657.012146	13.742044	0.848337	0.000000	0.170759	0.000000	-0.832596	-0.000000	0.000000	0.000000	0.000000	0.000000	0.000000	0.000000	0.000000	0.000000	0.000000
0.447000	-42.282368	661.904907	13.240111	0.847994	0.000000	0.170835	0.000000	-0.679387	-0.000000	0.000000	0.000000	0.000000	0.000000	0.000000	0.000000	0.000000	0.000000	0.000000
0.448000	-42.282372	662.485413	13.139725	0.848264	0.000000	0.170928	0.000000	-0.701198	-0.000000	0.000000	0.000000	0.000000	0.000000	0.000000	0.000000	0.000000	0.000000	0.000000
0.449000	-42.843796	661.573242	13.541271	0.848479	0.000000	0.170932	0.000000	-0.643677	-0.000000	0.000000	0.000000	0.000000	0.000000	0.000000	0.000000	0.000000	0.000000	0.000000
0.450000	-43.886452	663.231812	13.019260	0.847234	0.000000	0.170487	0.000000	-0.775932	-0.000000	0.000000	0.000000	0.000000	0.000000	0.000000	0.000000	0.000000	0.000000	0.000000
